<svg xmlns:xlink="http://www.w3.org/1999/xlink" xmlns="http://www.w3.org/2000/svg" x="331" y="347.3492" width="429.4309" height="97.3833" viewBox="1.2 -28.8 127.87999999999998 29" preserveAspectRatio="none"><g transform="matrix(1 0 0 1 0 0)" class="aD6z1nYkhcolorbab4f424-2a56-4326-af46-061bc1eca92a" fill="#FFA2E8"><path id="id-bab4f424-2a56-4326-af46-061bc1eca92aD6z1nYkh4" d="M25.56 0.20L1.88 0.20L1.88-5L24.88-4.96Q26.64-4.96 27.58-5.78Q28.52-6.60 28.52-8.44L28.52-8.44Q28.52-10.28 27.58-11.10Q26.64-11.92 24.88-11.92L24.88-11.92L10.56-11.92Q6.12-11.92 3.66-14.06Q1.20-16.20 1.20-20.36L1.20-20.36Q1.20-24.52 3.66-26.66Q6.12-28.80 10.56-28.80L10.56-28.80L33.04-28.80L33.04-23.60L11.24-23.64Q9.52-23.64 8.56-22.86Q7.60-22.08 7.60-20.36L7.60-20.36Q7.60-18.64 8.56-17.86Q9.52-17.08 11.24-17.08L11.24-17.08L25.56-17.08Q30-17.08 32.46-14.90Q34.92-12.72 34.92-8.44L34.92-8.44Q34.92-4.20 32.46-2Q30 0.20 25.56 0.20L25.56 0.20Z M44.76 0L39.28 0L37.32-20.60L43.16-20.60L44.52-4.96L50.72-7.76L50.72-20.60L56.52-20.60L56.52-7.72L62.72-4.96L64.08-20.60L69.92-20.60L67.96 0L62.48 0L53.60-3.92L44.76 0Z M99.96 0L78.80 0Q75.56 0 73.84-1.64Q72.12-3.28 72.12-6.32L72.12-6.32Q72.12-9.32 73.84-10.96Q75.56-12.60 78.80-12.60L78.80-12.60L94.16-12.60L94.16-13.56Q94.16-16 91.76-16L91.76-16L74.80-16L74.80-20.60L93.28-20.60Q96.92-20.60 98.44-18.94Q99.96-17.28 99.96-14.28L99.96-14.28L99.96 0ZM79.84-4.60L79.84-4.60L94.16-4.60L94.16-8L79.84-8Q79.08-8 78.66-7.54Q78.24-7.08 78.24-6.32L78.24-6.32Q78.24-5.56 78.66-5.08Q79.08-4.60 79.84-4.60Z M110.16 0L104.36 0L104.36-20.60L122.32-20.60Q125.84-20.60 127.46-18.86Q129.08-17.12 129.08-14.28L129.08-14.28L129.08 0L123.28 0L123.28-13.60Q123.28-16 120.88-16L120.88-16L110.16-16L110.16 0Z" fill="#FFA2E8"></path></g></svg>